<?xml version="1.0" encoding="iso-8859-1"?>
<!-- Generator: Adobe Illustrator 19.0.0, SVG Export Plug-In . SVG Version: 6.00 Build 0)  -->
<svg xmlns="http://www.w3.org/2000/svg" xmlns:xlink="http://www.w3.org/1999/xlink" version="1.1" id="Layer_1" x="0px" y="0px" viewBox="0 0 511.999 511.999" style="enable-background:new 0 0 511.999 511.999;" xml:space="preserve">
<g>
	<path style="fill:#CE2454;" d="M304.886,326.231c-11.315,0-19.918-1.425-20.822-1.58c-4.296-0.74-7.179-4.823-6.439-9.119   c0.74-4.294,4.824-7.174,9.113-6.441l0,0c13.269,2.261,49.935,4.099,60.112-14.288c2.112-3.813,6.914-5.195,10.729-3.083   c3.813,2.111,5.194,6.915,3.083,10.729C349.648,322.345,323.57,326.231,304.886,326.231z"/>
	<path style="fill:#CE2454;" d="M305.157,362.327c-3.633,0-7.033-0.146-10.057-0.36c-4.349-0.307-7.624-4.081-7.318-8.429   c0.307-4.349,4.062-7.623,8.431-7.319c12.198,0.862,41.554,1.092,50.638-15.318c2.11-3.814,6.912-5.196,10.728-3.084   c3.814,2.111,5.195,6.915,3.084,10.729C349.742,358.276,324.241,362.327,305.157,362.327z"/>
	<path style="fill:#CE2454;" d="M305.894,398.488c-4.364,0-9.055-0.216-14.097-0.682c-4.34-0.402-7.534-4.247-7.132-8.588   c0.402-4.341,4.243-7.529,8.587-7.133c10.097,0.936,43.802,2.608,53.599-15.088c2.112-3.814,6.914-5.195,10.729-3.083   c3.813,2.111,5.194,6.915,3.083,10.729C355.485,383.996,341.678,398.488,305.894,398.488z"/>
	<path style="fill:#CE2454;" d="M207.122,326.231c-18.684,0-44.762-3.884-55.777-23.782c-2.111-3.814-0.731-8.618,3.083-10.729   c3.814-2.111,8.618-0.731,10.729,3.083c10.18,18.387,46.846,16.548,60.114,14.288c4.292-0.728,8.374,2.154,9.109,6.449   s-2.143,8.372-6.437,9.112C227.038,324.806,218.434,326.231,207.122,326.231z"/>
	<path style="fill:#CE2454;" d="M206.851,362.327c-19.085,0-44.585-4.049-55.507-23.781c-2.111-3.814-0.73-8.618,3.084-10.729   c3.814-2.11,8.618-0.73,10.729,3.084c9.084,16.411,38.439,16.181,50.638,15.319c4.354-0.3,8.123,2.97,8.429,7.319   c0.307,4.349-2.97,8.123-7.319,8.429C213.884,362.181,210.482,362.327,206.851,362.327z"/>
	<path style="fill:#CE2454;" d="M206.113,398.488c-35.79,0-49.592-14.492-54.769-23.844c-2.111-3.814-0.731-8.618,3.083-10.729   c3.814-2.111,8.618-0.732,10.729,3.083c9.796,17.697,43.503,16.023,53.599,15.088c4.334-0.395,8.185,2.791,8.588,7.133   c0.401,4.342-2.791,8.186-7.133,8.588C215.171,398.272,210.476,398.488,206.113,398.488z"/>
</g>
<path style="fill:#F94F79;" d="M359.496,501.722l-32.627,1.231l-14.324,0.547h-113.07l-46.952-1.779  c-7.673-0.284-13.125-7.473-11.472-14.967c9.893-45.142,64.876-54.162,64.876-54.162h100.156c0,0,6.704,1.095,15.861,4.452  c17.124,6.283,42.795,20.461,49.099,50.078C372.611,494.481,367.011,501.438,359.496,501.722z"/>
<g>
	<path style="fill:#E23C63;" d="M314.134,461.581c4.252,13.788,8.483,27.586,12.735,41.374l-14.324,0.547h-95.988   c4.294-13.977,8.588-27.944,12.893-41.921c-4.768-1.074-9.504-2.337-14.188-3.778c2.579-8.409,5.168-16.808,7.746-25.207h83.074   c0,0,6.704,1.095,15.861,4.452c2.126,6.915,4.263,13.83,6.389,20.755C323.638,459.244,318.901,460.507,314.134,461.581z"/>
	<path style="fill:#E23C63;" d="M197.875,461.581c-4.252,13.788-8.483,27.586-12.735,41.374l14.325,0.547h95.988   c-4.294-13.977-8.588-27.944-12.893-41.921c4.768-1.074,9.504-2.337,14.188-3.778c-2.579-8.409-5.168-16.808-7.746-25.207h-83.074   c0,0-6.704,1.095-15.861,4.452c-2.126,6.915-4.263,13.83-6.389,20.755C188.37,459.244,193.107,460.507,197.875,461.581z"/>
</g>
<path style="fill:#F94F79;" d="M298.351,357.549h-0.028c4.774-1.077,9.518-2.337,14.218-3.783  c-4.952-16.097-9.904-32.193-14.856-48.289h-83.362c-4.952,16.096-9.904,32.193-14.856,48.289c4.702,1.446,9.445,2.706,14.218,3.783  h-0.026c-4.732,15.376-9.456,30.751-14.189,46.127c4.69,1.44,9.423,2.703,14.189,3.781c-4.724,15.384-9.456,30.751-14.189,46.135  c4.69,1.44,9.423,2.703,14.189,3.781c-4.732,15.376-9.456,30.751-14.189,46.127c36.84,11.333,76.229,11.333,113.069,0  c-4.732-15.376-9.456-30.752-14.189-46.127c4.766-1.078,9.498-2.341,14.189-3.781c-4.732-15.384-9.464-30.751-14.189-46.135  c4.766-1.078,9.498-2.341,14.189-3.781C307.808,388.3,303.083,372.924,298.351,357.549z"/>
<path style="fill:#E23C63;" d="M232.623,503.499c4.732-15.376,9.456-30.752,14.189-46.127c-4.766-1.078-9.498-2.341-14.189-3.781  c4.732-15.384,9.464-30.751,14.189-46.135c-4.766-1.078-9.498-2.341-14.189-3.781c4.732-15.376,9.456-30.751,14.189-46.127h0.028  c-4.774-1.077-9.518-2.337-14.218-3.783c4.952-16.097,9.904-32.193,14.856-48.289h-33.152c-4.952,16.096-9.904,32.193-14.856,48.289  c4.702,1.446,9.445,2.706,14.219,3.783h-0.031c-4.732,15.376-9.456,30.751-14.189,46.127c4.69,1.44,9.423,2.703,14.189,3.781  c-4.724,15.384-9.456,30.751-14.189,46.135c4.69,1.44,9.423,2.703,14.189,3.781c-4.732,15.376-9.456,30.751-14.189,46.127  c23.765,7.312,48.592,9.899,73.111,7.777C259.093,510.109,245.697,507.522,232.623,503.499z"/>
<g>
	<path style="fill:#CE2454;" d="M256.001,111.587c-4.359,0-7.894-3.534-7.894-7.894V75.162c0-4.359,3.534-7.894,7.894-7.894   c4.361,0,7.894,3.534,7.894,7.894v28.53C263.895,108.053,260.361,111.587,256.001,111.587z"/>
	<path style="fill:#CE2454;" d="M250.557,92.715l25.144-21.587l0.484-0.416c2.427-2.084,6.075-1.826,8.191,0.557l79.595,89.733   l-88.414-81.058l8.675,0.141l-22.788,24.062c-3.002,3.17-8.004,3.306-11.174,0.304c-3.169-3.002-3.306-8.004-0.304-11.174   C250.153,93.08,250.356,92.888,250.557,92.715z"/>
	<path style="fill:#CE2454;" d="M250.557,104.147L227.77,80.085l8.675-0.141l-88.414,81.058l79.596-89.733   c2.123-2.393,5.768-2.634,8.186-0.56l0.488,0.419l25.144,21.587c3.312,2.844,3.692,7.834,0.848,11.146s-7.834,3.692-11.146,0.848   C250.942,104.532,250.74,104.34,250.557,104.147z"/>
	<path style="fill:#CE2454;" d="M365.235,242.442c-17.905,0-33.07-2.246-39.377-3.337l-7.779-1.346l2.692-15.556l7.778,1.346   c6.879,1.19,25.078,3.856,45.387,2.908c24.821-1.16,43.471-7.141,55.431-17.779c11.557-10.28,16.662-24.718,15.603-44.14   l-0.428-7.882l15.764-0.859l0.429,7.882c1.318,24.194-5.707,43.302-20.876,56.794c-14.73,13.102-36.662,20.42-65.187,21.753   C371.467,242.376,368.309,242.442,365.235,242.442z"/>
	<path style="fill:#CE2454;" d="M146.763,242.442c-3.075,0-6.231-0.066-9.437-0.216c-28.525-1.334-50.456-8.652-65.187-21.753   c-15.171-13.492-22.194-32.601-20.876-56.794l0.429-7.882l15.764,0.859l-0.429,7.882c-1.058,19.422,4.047,33.86,15.604,44.14   c11.96,10.638,30.61,16.62,55.431,17.779c20.313,0.948,38.507-1.718,45.387-2.908l7.778-1.346l2.692,15.556l-7.778,1.346   C179.834,240.196,164.667,242.442,146.763,242.442z"/>
</g>
<path style="fill:#F94F79;" d="M327.9,247.554c0,60.55-28.018,65.729-64.003,66.15c-2.589,0.032-5.22,0.042-7.894,0.042  s-5.305-0.011-7.894-0.042c-35.995-0.421-64.002-5.599-64.002-66.15c0-17.345,2.305-36.069,6.431-54.204  c1.589-6.999,3.452-13.914,5.568-20.618c12.883-40.932,34.901-74.306,59.898-74.306s47.015,33.375,59.898,74.306  c2.116,6.704,3.978,13.619,5.568,20.618C325.595,211.485,327.9,230.209,327.9,247.554z"/>
<path style="fill:#E23C63;" d="M219.96,247.552c0-54.799,22.936-123.337,53.969-143.374c-5.731-3.701-11.739-5.748-17.928-5.748  c-39.708,0-71.897,84.202-71.897,149.121s32.19,66.192,71.897,66.192c6.19,0,12.197-0.032,17.928-0.329  C242.896,311.8,219.96,302.352,219.96,247.552z"/>
<g>
	<path style="fill:#4D4D4D;" d="M231.793,175.75c-4.359,0-7.894-3.534-7.894-7.894v-16.804c0-4.359,3.534-7.894,7.894-7.894   s7.894,3.534,7.894,7.894v16.804C239.687,172.215,236.154,175.75,231.793,175.75z"/>
	<path style="fill:#4D4D4D;" d="M280.208,175.75c-4.361,0-7.894-3.534-7.894-7.894v-16.804c0-4.359,3.533-7.894,7.894-7.894   s7.894,3.534,7.894,7.894v16.804C288.102,172.215,284.569,175.75,280.208,175.75z"/>
</g>
<path style="fill:#CE2454;" d="M321.47,193.351c-13.988,17.177-36.322,19.071-57.572,19.292v101.061  c-2.589,0.032-5.22,0.042-7.894,0.042c-2.673,0-5.305-0.011-7.894-0.042V212.643c-21.26-0.221-43.584-2.116-57.572-19.292  c1.589-6.999,3.452-13.914,5.568-20.618l3.778,6.462c9.609,16.493,27.618,17.682,56.119,17.682s46.499-1.189,56.119-17.682  l3.778-6.462C318.017,179.437,319.88,186.353,321.47,193.351z"/>
<ellipse transform="matrix(0.3468 -0.9379 0.9379 0.3468 -21.3422 136.2517)" style="fill:#F94F79;" cx="87.15" cy="83.448" rx="85.952" ry="61.854"/>
<path style="fill:#E23C63;" d="M69.576,61.992C79.97,33.878,99.479,12.959,120.514,4.338c-1.162-0.546-2.343-1.062-3.561-1.512  C84.914-9.02,45.597,17.47,29.137,61.992c-16.46,44.522-3.831,90.217,28.208,102.062c11.807,4.365,24.602,3.519,36.879-1.512  C64.836,148.719,53.741,104.821,69.576,61.992z"/>
<path style="fill:#F94F79;" d="M454.651,164.05c-31.731,11.733-70.608-14.14-87.337-57.91c-0.162-0.41-0.325-0.831-0.478-1.251  c-1.701-4.586-3.086-9.182-4.166-13.758c-9.478-39.823,3.631-77.687,32.38-88.303c4.949-1.835,10.07-2.751,15.269-2.819  c5.178-0.077,10.424,0.688,15.621,2.217c23.256,6.841,45.546,28.997,56.925,59.763C499.327,106.513,486.696,152.213,454.651,164.05z  "/>
<path style="fill:#E23C63;" d="M405.533,104.887c-15.979-43.221-4.54-87.541,25.453-100.932c-11.987-4.694-24.432-5.385-35.938-1.13  c-32.039,11.845-44.669,57.54-28.208,102.062c16.46,44.522,55.777,71.012,87.816,59.167c0.937-0.346,1.852-0.727,2.755-1.13  C436.018,154.547,416.082,133.42,405.533,104.887z"/>
<g>
	<path style="fill:#CE2454;" d="M426.034,62.257c-6.296,20.074-19.042,34.568-35.897,40.798c-5.886,2.179-12.038,3.268-18.383,3.268   c-1.471,0-2.952-0.057-4.443-0.181c-0.162-0.41-0.325-0.831-0.478-1.251c-1.701-4.586-3.086-9.182-4.166-13.758l3.058,0.43   c6.802,0.956,13.348,0.305,19.443-1.949c26.6-9.831,37.998-48.04,25.96-86.984l-0.813-2.618c5.178-0.077,10.424,0.688,15.621,2.217   C431.653,22.997,431.701,44.17,426.034,62.257z"/>
	<path style="fill:#CE2454;" d="M85.961,62.257c6.296,20.074,19.042,34.568,35.897,40.798c5.886,2.179,12.038,3.268,18.383,3.268   c1.471,0,2.952-0.057,4.443-0.181c0.162-0.41,0.325-0.831,0.478-1.251c1.701-4.586,3.086-9.182,4.166-13.758l-3.058,0.43   c-6.802,0.956-13.348,0.305-19.443-1.949c-26.601-9.834-37.999-48.042-25.961-86.986l0.813-2.618   C96.5-0.067,91.254,0.698,86.057,2.226C80.343,22.997,80.295,44.17,85.961,62.257z"/>
</g>
<g>
</g>
<g>
</g>
<g>
</g>
<g>
</g>
<g>
</g>
<g>
</g>
<g>
</g>
<g>
</g>
<g>
</g>
<g>
</g>
<g>
</g>
<g>
</g>
<g>
</g>
<g>
</g>
<g>
</g>
</svg>
