<?xml version="1.0" encoding="iso-8859-1"?>
<!-- Generator: Adobe Illustrator 19.0.0, SVG Export Plug-In . SVG Version: 6.00 Build 0)  -->
<svg version="1.1" id="Layer_1" xmlns="http://www.w3.org/2000/svg" xmlns:xlink="http://www.w3.org/1999/xlink" x="0px" y="0px"
	 viewBox="0 0 512 512" style="enable-background:new 0 0 512 512;" xml:space="preserve">
<polyline style="fill:#FF8CA0;" points="333.04,237.523 437.067,181.067 256,0 74.933,181.067 178.96,237.523 "/>
<path style="fill:#F94F79;" d="M400.413,318.345v21.672c0,28.934-22.896,53.181-51.82,53.725
	c-29.615,0.565-53.871-23.357-53.871-52.835v118.249c0,8.026,6.729,14.514,14.839,14.106c7.587-0.366,13.415-6.917,13.415-14.514
	v-22.614c0-10.925,9.052-19.736,20.06-19.349c10.496,0.377,18.658,9.313,18.658,19.809v21.672c0,28.934-22.896,53.181-51.82,53.725
	c-27.522,0.523-50.408-20.092-53.505-46.661c-0.241-2.03-0.366-4.081-0.366-6.174c0,11.814-3.903,22.729-10.475,31.54
	c-9.837,13.175-25.659,21.63-43.396,21.295c-28.924-0.544-51.82-24.79-51.82-53.725v-22.132c0-10.925,9.052-19.736,20.06-19.349
	c10.496,0.377,18.658,9.313,18.658,19.809v22.561c0,8.026,6.729,14.514,14.839,14.106c7.587-0.366,13.415-6.917,13.415-14.514
	V340.906c0,12.317-4.238,23.66-11.333,32.66c-9.878,12.536-25.303,20.5-42.538,20.176c-28.924-0.544-51.82-24.79-51.82-53.725
	v-22.132c0-10.925,9.052-19.736,20.06-19.349c10.496,0.377,18.658,9.313,18.658,19.809v22.561c0,8.026,6.729,14.514,14.839,14.106
	c7.587-0.366,13.416-6.917,13.416-14.514v-86.709c0-79.133,27.344-155.848,77.427-217.138c0.01-0.01,0.01-0.021,0.01-0.021
	c50.083,61.291,77.437,138.016,77.437,217.159v87.117c0,8.026,6.729,14.514,14.839,14.106c7.587-0.366,13.416-6.917,13.416-14.514
	v-22.614c0-10.925,9.052-19.736,20.06-19.349C392.251,298.912,400.413,307.849,400.413,318.345z"/>
<g>
	<path style="fill:#E23C63;" d="M245.525,490.691c-9.837,13.175-25.659,21.63-43.396,21.295c-28.924-0.544-51.82-24.79-51.82-53.725
		v-22.132c0-10.925,9.052-19.736,20.06-19.349c10.496,0.377,18.658,9.313,18.658,19.809v22.561c0,8.026,6.729,14.514,14.839,14.106
		C203.866,473.257,212.52,498.906,245.525,490.691z"/>
	<path style="fill:#E23C63;" d="M205.948,373.541c0,0.01,0,0.01,0,0.021c-9.878,12.536-25.303,20.5-42.538,20.176
		c-28.924-0.544-51.82-24.79-51.82-53.725V317.88c0-10.925,9.052-19.736,20.06-19.349c10.496,0.377,18.658,9.313,18.658,19.809
		v22.561c0,8.026,6.729,14.514,14.839,14.106c7.587-0.366,13.416-6.917,13.416-14.514v-86.709
		c0-79.133,27.344-155.848,77.427-217.138C255.027,39.2,183.743,227.938,205.948,373.541z"/>
</g>
<g>
	<path style="fill:#4D4D4D;" d="M240.878,243.887c-4.335,0-7.848-3.514-7.848-7.848v-17c0-4.334,3.513-7.848,7.848-7.848
		s7.848,3.514,7.848,7.848v17C248.726,240.373,245.212,243.887,240.878,243.887z"/>
	<path style="fill:#4D4D4D;" d="M271.12,243.887c-4.335,0-7.848-3.514-7.848-7.848v-17c0-4.334,3.513-7.848,7.848-7.848
		s7.848,3.514,7.848,7.848v17C278.969,240.373,275.456,243.887,271.12,243.887z"/>
</g>
<path style="fill:#E23C63;" d="M309.875,511.991c-27.522,0.523-50.408-20.092-53.505-46.661l-0.366-6.174V324.822
	C259.048,384.669,255.025,489.047,309.875,511.991z"/>
<g>
</g>
<g>
</g>
<g>
</g>
<g>
</g>
<g>
</g>
<g>
</g>
<g>
</g>
<g>
</g>
<g>
</g>
<g>
</g>
<g>
</g>
<g>
</g>
<g>
</g>
<g>
</g>
<g>
</g>
</svg>
