<?xml version="1.0" encoding="iso-8859-1"?>
<!-- Generator: Adobe Illustrator 19.0.0, SVG Export Plug-In . SVG Version: 6.00 Build 0)  -->
<svg xmlns="http://www.w3.org/2000/svg" xmlns:xlink="http://www.w3.org/1999/xlink" version="1.1" id="Layer_1" x="0px" y="0px" viewBox="0 0 512 512" style="enable-background:new 0 0 512 512;" xml:space="preserve">
<path style="fill:#FFD41D;" d="M304.819,349.65l39.208-16.081v60.084c0,32.759-26.645,59.404-59.404,59.404  c-16.971,0-32.309-7.151-43.134-18.604c-10.082-10.647-16.27-25.012-16.27-40.8V160.581c29.964-12.71,50.986-42.391,50.986-76.993  C276.206,37.428,238.778,0,192.618,0c-46.17,0-83.588,37.428-83.588,83.588c0,36.957,23.996,68.293,57.247,79.327v230.737  c0,35.314,15.547,67.057,40.151,88.739C227.293,500.819,254.681,512,284.624,512c65.256,0,118.347-53.091,118.347-118.347V156.278  L304.819,349.65z M156.665,83.588c0-19.85,16.092-35.952,35.952-35.952c19.85,0,35.952,16.102,35.952,35.952  c0,19.861-16.102,35.952-35.952,35.952C172.757,119.541,156.665,103.449,156.665,83.588z"/>
<path style="fill:#F9E385;" d="M241.489,434.452c-7.308,26.205-21.264,40.36-35.062,47.94c-24.603-21.682-40.15-53.426-40.15-88.739  V264.836c54.619-39.795,58.943-104.255,58.943-104.255v233.072C225.22,409.441,231.407,423.805,241.489,434.452z"/>
<g>
</g>
<g>
</g>
<g>
</g>
<g>
</g>
<g>
</g>
<g>
</g>
<g>
</g>
<g>
</g>
<g>
</g>
<g>
</g>
<g>
</g>
<g>
</g>
<g>
</g>
<g>
</g>
<g>
</g>
</svg>
